# xmcd
#
# Track frame offsets:
#	150
#	16734
#	32497
#	42918
#	56693
#	73279
#	91726
#	109788
#	126881
#	139459
#	173319
#	186726
#
# Disc length: 2611 seconds
#
# Revision: 1
# Processed by: cddbd v1.5.2PL0 Copyright (c) Steve Scherf et al.
# Submitted via: dBpowerAMP V4.0
#
DISCID=a40a310c
DTITLE=Hot Dog Taylor - Hot Dog Taylor
DYEAR=2007
DGENRE=Blues
TTITLE0=Hot Dog Booogie
TTITLE1=Addicted To You
TTITLE2=Ya Ya
TTITLE3=I'm On Fire
TTITLE4=Rock With Me
TTITLE5=Sugercoated Love
TTITLE6=Wheelin' and Dealin'
TTITLE7=Tell Me Pretty Baby
TTITLE8=Something In My Eye
TTITLE9=Sweet Talking Mama
TTITLE10=Find My Kind Of Woman
TTITLE11=Had It All
EXTD=
EXTT0=
EXTT1=
EXTT2=
EXTT3=
EXTT4=
EXTT5=
EXTT6=
EXTT7=
EXTT8=
EXTT9=
EXTT10=
EXTT11=
PLAYORDER=
